<svg width="493" height="382" viewBox="0 0 493 382" fill="none" xmlns="http://www.w3.org/2000/svg">
<path d="M351.62 117.478C351.511 118.253 352.633 117.896 353.169 117.915C357.986 118.074 365.871 117.955 370.211 119.564C378.107 122.484 371.94 136.199 373.389 142.545C377.958 143.737 378.484 143.34 379.507 148.067C380.778 153.907 382.516 169.022 381.305 174.504C380.57 177.841 379.289 176.163 376.836 176.709C375.972 176.898 375.435 177.762 374.502 177.93C373.221 178.169 371.622 177.811 370.291 177.95C371.413 186.402 367.033 194.496 368.513 202.858C369.258 202.997 369.447 202.689 369.745 202.083C370.619 200.276 371.363 196.303 372.307 193.97C374.661 188.13 378.335 181.754 382.526 177.057C384.632 174.693 390.928 169.737 391.753 167.165C391.921 166.639 392.974 161.584 392.974 161.276C392.954 160.491 391.465 159.111 391.236 157.69C389.776 148.544 404.057 142.932 411.178 146.647C414.505 148.385 414.674 152.586 416.114 153.271C418.925 154.622 427.446 151.096 426.353 156.826C425.807 159.687 416.76 158.783 414.555 160.153C415.091 162.179 415.657 164.285 415.032 166.4C414.227 169.102 409.093 171.137 409.033 173.273C408.973 175.229 415.359 183.989 417.008 185.737C423.702 192.847 435.282 198.717 445.213 197.892C450.02 197.495 455.363 194.506 459.504 198.776C462.176 197.009 458.531 194.913 457.726 192.609C456.545 189.222 455.522 176.808 459.395 175.16C466.714 172.041 471.7 184.058 470.737 189.62C470.399 191.576 468.045 194.426 468.671 196.313C468.899 196.999 471.303 197.902 472.186 198.608C478.066 203.265 480.757 221.599 480.648 228.868C480.578 233.546 478.662 238.631 478.404 243.1C478.364 243.765 478.255 244.629 478.473 245.245C478.791 246.159 485.028 248.135 486.557 249.168C499.706 258.066 488.295 287.612 476.03 293.641C469.763 296.719 455.184 298.467 451.936 290.443C451.351 288.993 450.447 283.193 449.374 282.726C447.815 282.051 442.144 284.98 439.492 285.119C435.957 285.308 432.253 284.007 428.796 283.779C419.352 283.133 410.086 285.616 400.77 286.44C398.337 286.659 394.682 285.974 392.517 286.639C390.243 287.344 387.204 292.955 385.218 294.902C374.283 305.608 346.039 314.536 337.617 296.66C331.817 284.345 336.842 270.957 344.519 260.887C345.929 259.03 349.763 257.113 346.714 254.66C340.576 249.744 330.297 255.474 325.868 252.823C322.144 250.598 326.921 241.809 326.762 238.174C326.682 236.287 325.52 235.949 324.964 234.162C322.581 226.564 329.036 214.984 328.967 207.049C328.947 204.983 327.05 206.582 325.62 204.606C323.395 201.527 324.865 190.245 325.461 186.233C325.898 183.264 326.98 176.232 328.937 174.147C331.241 171.694 336.445 173.998 336.951 173.491C337.11 168.089 333.257 163.739 332.631 158.465C332.244 155.218 332.711 151.9 332.443 148.643C330.287 147.858 327.884 148.226 325.798 147.054C320.247 143.945 323.842 132.912 324.061 127.886C324.18 125.116 321.429 121.252 320.376 118.233C318.678 113.357 317.873 108.093 316.364 103.118C315.381 99.8701 311.557 94.388 314.745 91.9052C318.122 89.2734 334.985 84.6255 339.971 83.3345C345.929 81.7951 348.343 79.491 351.819 85.4697C353.805 88.8861 353.626 91.071 354.729 94.5668C355.94 98.4202 362.684 110.179 361.184 113.446C360.29 115.403 353.706 116.585 351.63 117.459L351.62 117.478ZM355.612 110.775L347.389 87.6744C346.337 86.4032 339.524 88.8066 337.825 89.2337L347.836 112.582C349.068 113.744 353.974 111.142 355.612 110.775ZM329.265 92.1932C328.152 92.3124 326.226 93.375 324.935 93.6928C323.216 94.1199 318.459 94.1894 318.241 96.3545C318.072 98.0428 321.031 106.604 321.796 108.808C322.332 110.358 325.481 119.395 326.523 119.643C328.857 118.432 340.249 118.025 340.874 115.423C341.172 114.171 331.4 94.7257 329.97 92.1634C329.731 92.084 329.503 92.1634 329.265 92.1932ZM347.151 142.803L346.078 123.229C345.76 122.772 345.214 122.851 344.738 122.792C342.642 122.533 336.087 122.524 334.071 122.841C333.336 122.961 330.367 124.361 329.841 124.838C328.222 126.307 327.656 133.508 327.576 135.911C327.368 141.969 327.189 142.823 333.585 143.29C335.303 143.409 346.634 143.419 347.151 142.813V142.803ZM366.517 123.695C362.723 123.149 357.768 124.103 353.835 123.695L354.282 142.376C359.327 142.505 364.342 142.317 369.367 141.88C369.963 139.109 370.529 126 368.781 124.55C368.583 124.381 366.825 123.745 366.517 123.695ZM373.856 146.816L352.057 146.379L356.03 171.972L375.187 172.607L373.856 146.816ZM344.281 148.156H337.607C337.448 148.156 336.892 148.613 336.564 148.673C336.455 151.92 340.02 171.763 341.828 172.846C342.652 173.342 348.372 173.233 348.541 172.329L344.281 148.156ZM410.334 158.386C406.749 159.021 399.4 159.776 399.201 164.404C399.082 167.205 400.78 168.118 403.303 168.754C405.994 169.439 407.146 168.992 409.222 167.274C413.472 163.749 408.467 162.885 410.344 158.396L410.334 158.386ZM446.812 200.624C443.634 200.713 440.009 201.637 436.861 201.458C427.366 200.941 413.174 190.901 408.189 182.976C405.339 178.437 404.723 173.124 398.059 172.2C390.034 171.078 385.973 176.987 382.397 183.144C375.713 194.655 367.053 219.94 372.883 232.503C374.095 235.115 377.014 238.502 380.083 238.422C379.577 233.695 383.231 228.143 386.797 225.343C388.147 224.28 392.686 222.214 393.203 221.072C394.206 218.877 391.703 216.901 391.306 214.974C389.895 208.161 396.321 203.434 396.142 197.724C396.073 195.37 395.179 196.164 394.315 195.062C393.203 193.652 391.157 190.504 393.55 189.371C397.87 187.326 403.352 197.456 405.885 199.948C413.383 207.317 434.358 208.45 444.319 207.238C448.182 206.761 446.454 203.633 446.812 200.614V200.624ZM347.618 178.397L332.75 177.116L332.264 177.503C331.489 181.238 327.556 197.724 329.93 200.097C331.608 201.776 338.928 199.779 341.192 199.74C342.582 199.72 346.625 200.922 347.419 199.779L347.618 178.407V178.397ZM354.729 178.397C355.473 182.201 351.66 198.469 354.053 200.643C354.957 201.468 360.816 201.845 362.008 201.458C362.535 201.289 362.713 200.931 362.743 200.415L364.461 178.695C364.084 177.484 362.634 178.407 361.651 178.427C359.347 178.477 357.033 178.348 354.738 178.407L354.729 178.397ZM464.986 193.453C465.096 193.384 465.86 191.417 465.91 191.04C466.347 187.882 465.652 182.171 463.655 179.559C462.603 178.189 461.461 178.755 461.471 180.364C461.49 184.495 464.42 189.143 463.715 193.513C464.122 193.463 464.688 193.632 464.986 193.443V193.453ZM457.935 205.073C458.342 201.388 455.671 199.789 452.304 199.76C449.513 199.74 449.95 204.546 449.92 206.414C453.188 207.238 454.975 204.815 457.935 205.073ZM450.437 275.724C450.208 275.585 449.91 274.433 450.119 274.016C450.506 273.232 452.115 272.874 452.82 272.239C457.429 268.107 456.853 251.909 457.488 245.781C458.154 239.336 463.04 219.165 459.484 214.418C458.61 213.256 453.774 216.971 452.364 213.981C450.884 210.843 454.161 209.631 447.467 209.095C435.669 208.152 424.814 213.177 412.559 208.41C407.394 206.404 404.504 202.501 399.638 200.385C396.51 205.917 392.229 213.495 399.072 217.884C409.967 224.886 428.32 221.082 434.795 235.085C438.916 243.994 435.321 253.2 434.775 262.198C434.586 265.287 434.159 271.772 437.884 272.914C440.297 273.649 450.308 272.099 443.693 276.886C444.985 277.065 447.497 279.598 448.004 279.737C449.027 279.995 452.592 277.234 453.029 276.002C452.483 275.417 451.003 276.082 450.427 275.724H450.437ZM468.611 200.634V207.079C468.611 207.595 466.883 210.644 466.367 211.061C465.235 211.965 463.397 211.647 463.278 211.757C462.732 212.273 464.698 223.694 464.629 225.77C464.5 229.991 462.315 234.489 461.947 238.661C461.451 244.163 462.672 249.823 462.404 255.127C462.245 258.315 461.044 261.145 460.607 264.224C460.944 264.591 462.364 263.33 462.772 263.062C476.387 253.885 478.96 227.041 475.245 212.452C474.163 208.181 471.998 203.494 468.601 200.634H468.611ZM346.227 206.016C344.082 205.252 342.116 206.016 339.812 205.987C338.074 205.967 335.829 204.983 334.27 205.738C330.893 207.377 329.771 227.627 329.831 231.748C332.045 230.755 344.479 231.47 345.433 230.13C346.555 228.57 345.671 209.482 346.227 206.006V206.016ZM353.616 230.428C355.156 230.904 358.89 230.08 360.737 230.428L364.074 206.414L354.292 205.52C352.693 211.965 353.626 218.728 353.418 225.333C353.388 226.395 352.196 229.991 353.626 230.428H353.616ZM425.013 270.451C431.22 270.769 431.518 269.875 432.451 264.313C433.643 257.212 434.755 242.216 430.554 236.237C426.79 230.884 405.845 222.314 399.499 222.89C393.282 223.446 384.87 234.241 383.649 240.21C384.274 241.064 401.108 241.203 403.462 241.124C410.572 240.885 418.18 238.313 423.672 244.898C430.048 252.545 426.045 261.771 425.013 270.451ZM363.627 235.324C361.671 234.499 359.635 235.373 358.065 235.324C350.845 235.056 340.696 233.447 333.803 235.075C333.247 235.205 330.715 235.999 330.715 236.426C331.142 237.032 331.737 237.181 332.383 237.419C337.845 239.445 356.566 237.896 362.386 236.078C362.852 235.93 363.726 235.959 363.627 235.324ZM418.786 277.125C416.084 276.708 413.423 278.138 410.771 277.83C408.288 277.542 403.472 275.178 402.24 272.983C398.953 267.124 402.856 253.726 401.902 246.635C401.436 243.179 395.566 245.444 392.785 245.563C388.227 245.752 382.516 245.861 378.315 243.984C374.78 242.405 373.072 238.929 368.722 238.859C359.337 238.7 349.723 245.275 339.881 244.163C338.074 243.954 331.003 241.114 330.337 243.16C329.95 244.341 330.476 246.437 330.278 247.768C336.594 247.053 343.983 246.248 349.366 250.251C350.369 250.995 352.971 254.273 353.259 254.372C354.44 254.779 360.856 253.419 363.359 253.607C375.197 254.481 388.843 265.098 391.167 276.936C391.524 278.753 390.601 281.902 392.964 282.696C396.331 283.838 404.713 279.806 408.834 279.389C411.466 279.121 415.915 279.856 418.041 279.349C418.607 279.22 418.815 277.671 418.786 277.115V277.125ZM407.523 244.739C406.342 245.096 405.835 247.5 405.637 248.632C404.723 253.756 404.673 265.148 406.689 269.865C408.169 273.321 415.707 275.387 418.895 273.887C420.206 273.271 420.265 272.04 420.673 270.779C423.324 262.714 423.632 250.936 415.081 246.347C413.145 245.315 409.659 244.093 407.523 244.739ZM455.263 279.339C459.325 278.922 463.417 279.081 467.489 278.893C471.819 278.694 478.473 278.724 482.515 277.909C489.775 276.439 489.993 260.798 486.587 255.802C485.286 253.895 479.605 248.969 477.331 250.479C476.179 251.244 474.788 255.355 473.855 256.815C469.773 263.231 465.572 264.442 460.001 268.306C456.098 271.007 457.19 275.436 455.254 279.349L455.263 279.339ZM356.844 257.659C349.505 258.921 341.45 274.701 340.626 281.465C340.467 282.796 340.139 287.225 340.934 288.019C342.582 289.688 353.775 287.145 356.745 286.897C364.67 286.232 372.704 286.669 380.699 285.497C383.897 285.03 387.025 285.278 387.125 281.336C387.452 268.405 368.573 255.643 356.844 257.649V257.659ZM474.391 283.789C472.057 284.057 469.326 283.967 467.052 284.236C466.307 284.325 462.354 284.752 462.384 285.348C465.701 288.198 472.008 287.612 474.381 283.799L474.391 283.789ZM367.411 290.463C363.657 290.671 359.823 290.314 356.069 290.463C356.447 293.094 361.333 292.866 363.359 292.637C364.133 292.548 368.652 291.227 368.96 290.9C370.36 289.43 367.51 290.453 367.401 290.463H367.411Z" fill="#2D2D2B"/>
<path d="M292.519 208.857C293.641 208.886 294.644 209.532 295.677 209.741C298.835 210.366 304.039 210.108 306.78 211.121C311.895 213.008 307.445 222.661 306.462 226.197C305.568 229.415 304.615 236.863 301.636 238.651C299.034 240.21 296.859 238.532 294.247 238.144C292.946 241.739 294.803 245.255 294.495 248.83C294.137 252.932 292.32 256.706 291.803 260.768C294.535 260.639 301.218 261.741 302.688 264.184C303.93 266.25 301.824 275.883 301.119 278.575C300.027 282.756 298.974 286.708 294.147 287.324C286.48 288.297 270.908 287.741 263.191 286.629C257.928 285.864 252.734 283.66 247.52 283.213C244.193 282.925 240.161 284.136 236.724 284.136C230.388 284.146 224.181 282.537 217.924 281.713C215.62 281.405 210.923 282.259 209.363 280.313C208.519 279.26 208.47 274.89 208.053 273.212C207.417 270.63 205.947 267.849 205.699 265.297C205.401 262.277 206.195 258.97 206.046 255.911C205.401 254.422 197.764 255.911 196.929 249.953C196.403 246.139 198.508 234.162 200.237 230.755C202.848 225.601 214.289 226.465 219.394 226.465C227.677 226.465 240.389 226.614 248.205 228.64C249.605 228.997 253.469 231.004 254.104 231.063C254.472 231.093 254.73 230.15 255.246 229.891C257.411 228.809 259.139 229.136 261.424 229.712L266.161 209.333C258.375 209.244 257.024 208.201 256.676 200.763C256.557 198.28 257.521 188.934 256.895 187.663C256.388 186.64 252.456 187.067 250.648 184.694C248.195 181.486 245.702 164.752 245.643 160.312C245.514 149.517 250.569 153.192 258.295 152.963C261.275 152.874 264.065 152.02 267.243 152.119C271.514 152.248 275.427 153.47 279.518 153.916C283.094 154.304 290.254 153.122 292.727 155.952C294.108 157.532 293.909 159.975 294.634 161.891C295.587 164.434 297.345 166.857 298.04 169.469C298.606 171.604 298.587 178.507 299.163 179.371C300.027 180.662 305.072 180.086 307.018 182.38C308.657 184.306 308.866 191.159 308.786 193.741C308.697 196.731 308.429 204.05 306.373 206.046C303.989 208.36 297.246 207.576 294.088 208.142C293.492 208.251 292.757 208.152 292.499 208.867L292.519 208.857ZM294.187 180.652C295.359 179.728 289.738 159.399 288.536 158.872L254.174 157.78L256.279 182.4C262.079 182.628 267.978 183.254 273.788 182.866C280.581 182.41 287.166 179.927 294.187 180.662V180.652ZM302.609 202.997C303.562 201.994 304.317 188.09 303.254 186.859C301.804 185.19 295.677 185.29 293.402 185.339C288.397 185.449 283.471 186.63 278.466 186.889C273.877 187.127 267.621 186.303 263.36 187.087C262.705 187.206 261.98 187.256 261.662 187.971C261.344 188.686 262.258 203.424 262.973 203.772C276.092 205.5 289.519 204.378 302.609 202.997ZM304.734 215.749L272.914 209.443L266.757 230.259C270.113 230.646 273.699 231.897 277.026 232.185C279.052 232.364 281.485 231.629 283.402 231.997C285.855 232.473 289.817 234.519 292.747 235.165C293.998 235.443 298.716 236.436 299.54 235.87C300.99 234.877 305.876 216.802 304.724 215.749H304.734ZM273.579 234.39C271.315 234.112 259.686 233.198 258.464 234.569C256.915 241.273 253.25 247.589 253.23 254.531C253.29 255.107 253.647 255.514 254.064 255.872C256.587 258.027 265.803 257.798 269.369 258.335C274.831 259.159 278.406 260.986 284.315 260.132C290.443 259.248 289.509 248.86 289.291 243.994C289.162 241.213 289.718 237.668 286.59 236.694C283.163 235.632 277.254 234.827 273.57 234.38L273.579 234.39ZM246.616 250.38C247.162 247.778 250.151 235.403 247.659 233.973C246.715 233.427 242.961 233.347 241.591 233.278C231.808 232.742 221.847 231.679 212.085 231.341C206.91 231.162 205.937 230.408 204.577 235.949C204.05 238.075 204.269 239.942 203.971 241.759C203.633 243.775 202.034 245.384 202.868 247.807C203.683 250.201 210.446 250.221 212.899 250.35C218.957 250.688 225.204 249.943 231.292 249.963C236.397 249.972 241.521 250.678 246.626 250.38H246.616ZM248.026 255.236C242.524 254.849 236.446 253.717 230.964 253.955C228.64 254.054 226.296 254.869 224.082 255.028C222.225 255.157 212.522 255.067 211.936 255.663C211.161 256.428 212.234 266.111 212.472 267.908C212.641 269.18 213.991 277.284 214.369 277.681L250.211 278.753C250.757 278.257 250.896 267.72 250.996 265.982C251.085 264.522 252.297 261.741 251.085 260.589C249.466 259.05 246.725 259.248 248.036 255.246L248.026 255.236ZM299.153 267.164C298.676 266.508 288.824 264.601 287.265 264.442C283.958 264.095 280.73 264.919 277.641 264.85C271.395 264.711 264.751 262.615 258.424 262.387L257.213 280.958C266.349 282.368 275.655 283.55 284.891 283.828C286.739 283.888 293.124 284.226 294.396 283.799C295.796 283.322 296.581 280.194 297.017 278.714C297.623 276.688 298.477 273.44 298.885 271.374C299.163 269.944 299.073 268.594 299.153 267.164Z" fill="#2D2D2B"/>
<path d="M292.33 48.1775C296.779 46.8467 302.271 53.3617 305.151 55.6459C309.958 59.4595 316.86 62.7567 321.14 66.7888C323.127 68.6659 323.723 69.2915 322.253 71.8836C318.886 77.8126 311.149 84.3971 308.1 90.197C306.283 93.6432 307.336 98.6684 301.347 97.2483C296.461 96.0863 288.407 87.4858 284.216 84.1389C282.13 82.4704 273.669 77.5643 273.44 75.3894C273.301 74.0784 275.963 69.5795 276.787 68.2388C280.114 62.8262 285.944 55.3479 290.045 50.3624C290.532 49.7764 291.684 48.3761 292.33 48.1874V48.1775ZM295.001 53.9377C294.048 54.0668 289.003 59.5886 289.519 60.5519L312.699 74.7736C313.632 74.7538 317.148 70.1357 316.512 69.2121C313.692 67.494 296.66 53.7093 295.001 53.9377ZM308.875 80.6232L286.341 66.8484C284.206 66.3221 284.096 68.5368 283.113 69.6789C281.782 71.2182 278.287 73.423 279.329 75.6675C279.588 76.2137 283.034 79.4314 283.798 80.1167C286.609 82.6492 290.502 85.4598 293.65 87.6049C294.941 88.4888 300.652 92.4117 301.655 92.511C302.589 92.6004 304.942 88.608 305.538 87.6546C306.134 86.7012 309.362 81.3283 308.875 80.6331V80.6232Z" fill="#2D2D2B"/>
<path d="M19.6839 236.416H0V223.039H53.5101V236.416H33.8262V285.149H19.6839V236.416Z" fill="#2D2D2B"/>
<path d="M82.361 223.029V247.688H106.822V223.029H120.964V285.139H106.822V259.149H82.361V285.139H68.2188V223.029H82.361Z" fill="#2D2D2B"/>
<path d="M140.46 223.029H184.793V235.83H154.602V248.443H179.45V258.384H154.602V272.149H185.945V285.139H140.46V223.029Z" fill="#2D2D2B"/>
<path d="M4.77752 318.588H28.4737C46.5289 318.588 59.4396 331.489 59.4396 349.643C59.4396 367.798 46.8268 380.699 29.6257 380.699H4.77752V318.588ZM28.8511 367.708C37.9283 367.708 44.5227 360.061 44.5227 349.554C44.5227 339.047 37.6403 331.4 28.0864 331.4H18.9098V367.708H28.8511Z" fill="#2D2D2B"/>
<path d="M90.7726 318.588V380.699H76.6304V318.588H90.7726Z" fill="#2D2D2B"/>
<path d="M135.871 369.228C140.548 369.228 145.047 367.321 145.047 363.11C145.047 351.262 109.88 354.698 109.88 334.826C109.88 324.696 118.858 317.436 132.812 317.436C146.765 317.436 158.425 324.606 159.19 334.448L143.141 338.272C142.763 333.306 138.741 329.671 133.199 329.671C128.522 329.671 124.787 332.254 124.787 335.789C124.787 347.061 160.332 343.625 160.332 363.508C160.332 374.303 149.914 381.851 135.106 381.851C120.298 381.851 107.974 373.538 107.586 362.266L124.023 358.83C124.41 364.848 128.7 369.248 135.871 369.248V369.228Z" fill="#2D2D2B"/>
<path d="M177.156 318.588H206.583C218.331 318.588 226.843 327 226.843 338.649C226.843 350.299 217.865 358.522 205.441 358.522H191.298V380.689H177.156V318.578V318.588ZM204.1 348.213C208.688 348.213 211.936 344.678 211.936 339.801C211.936 334.925 208.688 331.39 204.1 331.39H191.298V348.203H204.1V348.213Z" fill="#2D2D2B"/>
<path d="M254.551 318.588H271.752L293.352 380.699H278.068L273.48 366.179H252.932L248.443 380.699H232.96L254.56 318.588H254.551ZM270.322 356.238L263.151 333.306L255.981 356.238H270.322Z" fill="#2D2D2B"/>
<path d="M315.907 331.966H296.223V318.588H349.733V331.966H330.049V380.699H315.907V331.966Z" fill="#2D2D2B"/>
<path d="M391.196 381.851C373.618 381.851 360.24 367.997 360.24 349.653C360.24 331.31 373.33 317.446 390.819 317.446C403.719 317.446 414.992 325.192 418.716 336.653L403.997 342.384C402.567 335.501 397.214 330.824 390.809 330.824C382.307 330.824 375.524 339.136 375.524 349.653C375.524 360.171 382.208 368.096 391.196 368.096C397.979 368.096 403.233 363.22 404.385 355.771L419.48 361.889C416.134 373.638 404.574 381.861 391.196 381.861V381.851Z" fill="#2D2D2B"/>
<path d="M450.446 318.588V343.248H474.907V318.588H489.049V380.699H474.907V354.708H450.446V380.699H436.304V318.588H450.446Z" fill="#2D2D2B"/>
</svg>
