<svg width="1400" height="167" viewBox="0 0 1400 167" fill="none" xmlns="http://www.w3.org/2000/svg">
<path d="M2.02283 83.6407C2.02283 36.8815 34.6234 2.81348 79.7169 2.81348C124.81 2.81348 157.411 36.8815 157.411 83.6407C157.411 130.4 124.81 164.428 79.7169 164.428C34.6234 164.428 2.02283 130.36 2.02283 83.6407ZM79.7169 129.924C102.997 129.924 120.011 110.015 120.011 83.1647C120.011 56.3149 102.997 36.4055 79.7169 36.4055C56.4364 36.4055 39.4223 55.839 39.4223 83.1647C39.4223 110.491 56.4364 129.924 79.7169 129.924Z" fill="#2D2D2B"/>
<path d="M180.77 5.70996H254.617C284.124 5.70996 305.461 26.8091 305.461 56.0782C305.461 85.3473 282.935 105.971 251.762 105.971H216.266V161.614H180.77V5.7496V5.70996ZM248.391 80.0329C259.892 80.0329 268.062 71.149 268.062 58.9337C268.062 46.7184 259.892 37.8346 248.391 37.8346H216.266V80.0329H248.391Z" fill="#2D2D2B"/>
<path d="M328.941 5.70996H440.187V37.8346H364.436V69.4833H426.782V94.4295H364.436V128.973H443.082V161.574H328.941V5.70996Z" fill="#2D2D2B"/>
<path d="M474.612 5.70996H514.906L570.549 109.302V5.70996H606.045V161.574H567.694L510.147 56.0782V161.574H474.651V5.70996H474.612Z" fill="#2D2D2B"/>
<path d="M677.036 5.70996V67.5796H738.43V5.70996H773.925V161.574H738.43V96.3332H677.036V161.574H641.54V5.70996H677.036Z" fill="#2D2D2B"/>
<path d="M797.485 83.6407C797.485 36.8815 830.086 2.81348 875.179 2.81348C920.273 2.81348 952.873 36.8815 952.873 83.6407C952.873 130.4 920.273 164.428 875.179 164.428C830.086 164.428 797.485 130.36 797.485 83.6407ZM875.179 129.924C898.46 129.924 915.474 110.015 915.474 83.1647C915.474 56.3149 898.46 36.4055 875.179 36.4055C851.899 36.4055 834.885 55.839 834.885 83.1647C834.885 110.491 851.899 129.924 875.179 129.924Z" fill="#2D2D2B"/>
<path d="M976.471 5.70996H1011.97V96.3332C1011.97 115.767 1024.18 129.925 1041.24 129.925C1058.29 129.925 1070.51 115.767 1070.51 96.3332V5.70996H1106V97.3247C1106 136.152 1078.91 164.469 1041.28 164.469C1003.64 164.469 976.55 136.192 976.55 97.3247V5.70996H976.471Z" fill="#2D2D2B"/>
<path d="M1200.59 132.779C1212.33 132.779 1223.59 127.981 1223.59 117.431C1223.59 87.686 1135.35 96.3319 1135.35 46.4395C1135.35 21.0174 1157.88 2.81348 1192.9 2.81348C1227.92 2.81348 1257.14 20.8192 1259.09 45.4877L1218.79 55.0854C1217.84 42.6322 1207.77 33.5103 1193.85 33.5103C1182.11 33.5103 1172.75 39.9749 1172.75 48.8588C1172.75 77.1364 1261.94 68.5302 1261.94 118.383C1261.94 145.471 1235.81 164.428 1198.65 164.428C1161.48 164.428 1130.55 143.567 1129.6 115.289L1170.84 106.643C1171.8 121.754 1182.58 132.779 1200.59 132.779Z" fill="#2D2D2B"/>
<path d="M1284.11 5.70996H1395.36V37.8346H1319.61V69.4833H1381.96V94.4295H1319.61V128.973H1398.26V161.574H1284.11V5.70996Z" fill="#2D2D2B"/>
</svg>
